<svg version="1.1" id="Camada_1" xmlns="http://www.w3.org/2000/svg" x="0" y="0" viewBox="0 0 4001 2017.2" style="enable-background:new 0 0 4001 2017.2" xml:space="preserve"><style>.st1{fill-opacity:0;stroke:#000;stroke-opacity:0}</style><path id="d1pwhf9wy2" d="M4000.5 173.8C3989.6 85 3923.8 14.3 3839.9.5H162.8C70.8 15.6.5 99 .5 199.5v1615.7c0 111.3 86.1 201.5 192.3 201.5h3617c97.8 0 178.6-76.6 190.7-175.7V173.8z" style="fill:#f6c700"/><path class="st1" d="M4000.5 173.8C3989.6 85 3923.8 14.3 3839.9.5H162.8C70.8 15.6.5 99 .5 199.5v1615.7c0 111.3 86.1 201.5 192.3 201.5h3617c97.8 0 178.6-76.6 190.7-175.7V173.8z"/><path id="g5jjnq26yS" d="M482.9 405.6h317.4v1221.9H482.9V405.6z"/><path class="st1" d="M482.9 405.6h317.4v1221.9H482.9V405.6z"/><path id="i3Prh1JpXt" d="M1400.2 968.5c-27.3-186.2-42.4-289.7-45.4-310.4-13.3-99.7-25.9-186.4-38.1-260.5H905.2v1221.9h278.1l1-806.8 117 806.8h198.1l111-824.8 1 824.8h277.1V397.6h-414.7l-73.6 570.9z"/><path class="st1" d="M1400.2 968.5c-27.3-186.2-42.4-289.7-45.4-310.4-13.3-99.7-25.9-186.4-38.1-260.5H905.2v1221.9h278.1l1-806.8 117 806.8h198.1l111-824.8 1 824.8h277.1V397.6h-414.7l-73.6 570.9z"/><g><path id="a4ov9rRGQm" d="M2412.4 651.8c3.5 15.6 5.3 50.9 5.3 106.2v473.7c0 81.3-5.3 131.1-15.8 149.5-10.6 18.4-38.7 27.5-84.2 27.5V606.6c34.6 0 58.2 3.7 70.7 10.9 12.4 7.3 20.5 18.8 24 34.3zm143.4 955.3c37.8-8.3 69.5-22.9 95.2-43.7 25.7-20.9 43.7-49.7 54-86.7 10.4-36.9 16.5-110.1 16.5-219.7V827.9c0-115.6-4.5-193.1-11.5-232.5-7.1-39.4-24.7-75.3-52.9-107.4-28.2-32.1-69.4-55.2-123.5-69.3-54.2-14.1-142.5-21.1-296.2-21.1h-236.8v1221.9h384.6c88.5-2.7 145.4-6.8 170.6-12.4z"/><path class="st1" d="M2412.4 651.8c3.5 15.6 5.3 50.9 5.3 106.2v473.7c0 81.3-5.3 131.1-15.8 149.5-10.6 18.4-38.7 27.5-84.2 27.5V606.6c34.6 0 58.2 3.7 70.7 10.9 12.4 7.3 20.5 18.8 24 34.3zm143.4 955.3c37.8-8.3 69.5-22.9 95.2-43.7 25.7-20.9 43.7-49.7 54-86.7 10.4-36.9 16.5-110.1 16.5-219.7V827.9c0-115.6-4.5-193.1-11.5-232.5-7.1-39.4-24.7-75.3-52.9-107.4-28.2-32.1-69.4-55.2-123.5-69.3-54.2-14.1-142.5-21.1-296.2-21.1h-236.8v1221.9h384.6c88.5-2.7 145.4-6.8 170.6-12.4z"/></g><g><path id="fk968BpsX" d="M3233.6 1424.5c-5.8 15.5-31.4 23.4-50.8 23.4-18.9 0-31.5-7.5-37.9-22.6-6.4-15-9.5-49.3-9.5-103V999.4c0-55.7 2.8-90.4 8.4-104.2 5.6-13.7 17.8-20.7 36.7-20.7 19.3 0 45.3 7.9 52 23.7 6.6 15.8 9.9 49.5 9.9 101.2v313.1c-2 64.3-4.9 101.6-8.8 112zm-404 184.4h285.8c11.9-46.7 18.4-72.6 19.8-77.8 25.9 31.3 54.3 54.8 85.6 70.4 31.1 15.7 77.6 23.4 113.7 23.4 50.2 0 93.4-13.1 129.9-39.5 36.5-26.3 59.7-57.5 69.6-93.3 9.9-35.9 14.8-90.4 14.8-163.8V985.5c0-73.7-1.7-121.9-4.9-144.5-3.3-22.6-13-45.6-29.2-69.2s-39.8-41.9-70.7-55c-30.9-13.1-67.3-19.6-109.4-19.6-36.5 0-83.3 7.3-114.4 21.7-31.1 14.4-59.3 36.2-84.7 65.5V386.9h-305.8v1222z"/><path class="st1" d="M3233.6 1424.5c-5.8 15.5-31.4 23.4-50.8 23.4-18.9 0-31.5-7.5-37.9-22.6-6.4-15-9.5-49.3-9.5-103V999.4c0-55.7 2.8-90.4 8.4-104.2 5.6-13.7 17.8-20.7 36.7-20.7 19.3 0 45.3 7.9 52 23.7 6.6 15.8 9.9 49.5 9.9 101.2v313.1c-2 64.3-4.9 101.6-8.8 112zm-404 184.4h285.8c11.9-46.7 18.4-72.6 19.8-77.8 25.9 31.3 54.3 54.8 85.6 70.4 31.1 15.7 77.6 23.4 113.7 23.4 50.2 0 93.4-13.1 129.9-39.5 36.5-26.3 59.7-57.5 69.6-93.3 9.9-35.9 14.8-90.4 14.8-163.8V985.5c0-73.7-1.7-121.9-4.9-144.5-3.3-22.6-13-45.6-29.2-69.2s-39.8-41.9-70.7-55c-30.9-13.1-67.3-19.6-109.4-19.6-36.5 0-83.3 7.3-114.4 21.7-31.1 14.4-59.3 36.2-84.7 65.5V386.9h-305.8v1222z"/></g></svg>